<svg width="1219" height="178" viewBox="0 0 1219 178" fill="none" xmlns="http://www.w3.org/2000/svg">
<path opacity="0.12" d="M4.90174e-05 -0.000207424H99.0601C113.961 -0.000207424 126.746 1.60846 137.414 4.82579C149.098 8.21246 158.327 13.2925 165.1 20.0658C176.107 30.7338 181.61 45.5505 181.61 64.5158C181.61 83.3118 176.107 98.3825 165.1 109.728C157.988 117.178 148.675 122.682 137.16 126.238C127.339 129.286 116.078 130.81 103.378 130.81H78.7401V177.8H4.90174e-05V-0.000207424ZM102.616 66.8018V54.3558H77.4701V79.5018H102.616V66.8018ZM179.07 177.292L223.012 -0.000207424H340.868L382.524 177.292V177.8H303.784L299.466 152.908H261.112L257.048 177.8H179.07V177.292ZM291.846 102.87L281.686 44.9578H279.146L268.478 102.87H291.846ZM396.379 -0.000207424H455.053L518.807 72.8978H521.347L513.473 30.7338V-0.000207424H586.371V177.8H527.697L463.943 105.156H461.403L469.277 147.32V177.8H396.379V-0.000207424ZM611.684 -0.000207424H697.536C720.734 -0.000207424 739.869 3.13246 754.94 9.39779C770.01 15.6631 781.356 25.1458 788.976 37.8458C796.934 51.0538 800.914 68.0718 800.914 88.8998C800.914 109.728 796.934 126.746 788.976 139.954C781.356 152.654 770.01 162.136 754.94 168.402C739.869 174.667 720.734 177.8 697.536 177.8H611.684V-0.000207424ZM719.126 113.792V88.8998V64.0078H703.886H687.884V113.792H703.886H719.126ZM806.381 177.292L850.323 -0.000207424H968.179L1009.83 177.292V177.8H931.095L926.777 152.908H888.423L884.359 177.8H806.381V177.292ZM919.157 102.87L908.997 44.9578H906.457L895.789 102.87H919.157ZM1014.74 177.292L1058.68 -0.000207424H1176.54L1218.19 177.292V177.8H1139.45L1135.14 152.908H1096.78L1092.72 177.8H1014.74V177.292ZM1127.52 102.87L1117.36 44.9578H1114.82L1104.15 102.87H1127.52Z" fill="white"/>
</svg>
