<svg width="74" height="73" viewBox="0 0 74 73" fill="none" xmlns="http://www.w3.org/2000/svg">
<path d="M33.9864 30.5512C25.1947 34.7767 25.5442 45.5868 26.8179 50.4637C18.8033 61.5839 22.9837 66.4618 26.0757 67.5107C31.6022 70.4849 44.2666 62.1672 46.4032 56.747C52.1487 57.9935 63.9521 49.2452 64.257 45.1441C65.9783 35.6371 59.0977 34.6244 55.4423 35.3065C48.8232 36.2326 48.1673 33.2406 46.3776 31.511C41.7809 27.0686 36.2015 29.0201 33.9864 30.5512Z" fill="#414CAF" stroke="#F7F7F7" stroke-width="2"/>
<ellipse cx="4.71852" cy="8.55145" rx="4.71852" ry="8.55145" transform="matrix(0.777806 -0.628505 0.485779 0.874082 8.86572 42.5526)" fill="#414CAF" stroke="#F7F7F7"/>
<ellipse cx="4.74184" cy="8.52903" rx="4.74184" ry="8.52903" transform="matrix(0.765719 -0.643175 0.502064 0.864831 11.2056 26.7342)" fill="#414CAF" stroke="#F7F7F7"/>
<ellipse cx="4.58583" cy="8.66655" rx="4.58583" ry="8.66655" transform="matrix(0.837636 -0.546229 0.399094 0.91691 20.7856 15.6034)" fill="#414CAF" stroke="#F7F7F7"/>
<ellipse cx="4.31938" cy="8.84039" rx="4.31938" ry="8.84039" transform="matrix(0.921372 -0.388683 0.25378 0.967262 35.4634 12.7303)" fill="#414CAF" stroke="#F7F7F7"/>
<ellipse cx="4.19767" cy="8.89714" rx="4.19767" ry="8.89714" transform="matrix(0.947174 -0.320721 0.199131 0.979973 49.1665 17.6698)" fill="#414CAF" stroke="#F7F7F7"/>
</svg>
