<svg width="183" height="145" viewBox="0 0 183 145" fill="none" xmlns="http://www.w3.org/2000/svg">
<path fill-rule="evenodd" clip-rule="evenodd" d="M99.1848 23.4524C106.14 21.6554 112.867 19.6557 119.924 18.3127C130.836 16.2362 143.526 6.87621 152.58 13.2912C160.966 19.2324 158.243 33.7094 155.671 43.6389C153.152 53.3647 133.77 59.129 138.394 68.054C146.387 83.4832 175.807 79.221 182.425 95.2839C186.511 105.2 167.799 111.283 158.186 116.088C149.591 120.384 138.941 117.683 130.097 121.441C122.718 124.576 118.397 132.393 111.254 136.031C103.201 140.132 93.9453 147.579 85.6028 144.1C76.3472 140.241 79.8595 120.128 69.9163 118.795C51.0125 116.259 33.8645 139.719 15.4688 134.693C3.07119 131.306 1.42563 112.504 0.20346 99.7482C-0.995575 87.234 3.27131 74.6915 8.62944 63.3113C13.4316 53.112 25.4728 47.633 29.6669 37.1707C34.3132 25.5805 21.5593 2.42571 33.8952 0.285627C52.3729 -2.91995 64.5612 21.7821 82.2305 28.0518C87.7957 30.0265 93.4665 24.9298 99.1848 23.4524Z" fill="#00A06D" fill-opacity="0.1"/>
<path d="M115 103C115 103.552 114.552 104 114 104H23C22.4477 104 22 103.552 22 103L22 62.7C22 62.1477 22.4477 61.7 23 61.7H48.9C49.4523 61.7 49.9 61.2523 49.9 60.7V48.6C49.9 48.0477 50.3477 47.6 50.9 47.6H76.8C77.3523 47.6 77.8 47.1523 77.8 46.6V20.4C77.8 19.8477 78.2477 19.4 78.8 19.4H114C114.552 19.4 115 19.8477 115 20.4V103ZM31.3 93.6C31.3 94.1523 31.7477 94.6 32.3 94.6H48.9C49.4523 94.6 49.9 94.1523 49.9 93.6V72.1C49.9 71.5477 49.4523 71.1 48.9 71.1H32.3C31.7477 71.1 31.3 71.5477 31.3 72.1V93.6ZM59.2 93.6C59.2 94.1523 59.6477 94.6 60.2 94.6H76.8C77.3523 94.6 77.8 94.1523 77.8 93.6V58C77.8 57.4477 77.3523 57 76.8 57H60.2C59.6477 57 59.2 57.4477 59.2 58V93.6ZM87.1 93.6C87.1 94.1523 87.5477 94.6 88.1 94.6H104.7C105.252 94.6 105.7 94.1523 105.7 93.6V29.8C105.7 29.2477 105.252 28.8 104.7 28.8H88.1C87.5477 28.8 87.1 29.2477 87.1 29.8V93.6ZM63.85 34.85C63.85 35.4023 63.4023 35.85 62.85 35.85H55.55C54.9977 35.85 54.55 35.4023 54.55 34.85V28.4787C54.55 27.5852 53.4675 27.1402 52.8391 27.7754L35.2986 45.5045C34.9072 45.9001 34.2682 45.9001 33.8768 45.5045L28.7081 40.2803C28.3226 39.8906 28.3226 39.2633 28.7081 38.8736L46.2894 21.1033C46.9142 20.4718 46.4669 19.4 45.5785 19.4H39.275C38.7227 19.4 38.275 18.9523 38.275 18.4V11C38.275 10.4477 38.7227 10 39.275 10L62.85 10C63.4023 10 63.85 10.4477 63.85 11V34.85Z" fill="#00A06D"/>
</svg>
