<svg width="206" height="199" viewBox="0 0 206 199" fill="none" xmlns="http://www.w3.org/2000/svg">
<path d="M109.274 55.0248C92.0056 51.628 75.1047 63.1437 71.6147 80.8853C69.4937 91.6674 72.7857 100.837 79.7025 107.891C80.546 108.755 81.3616 109.588 81.9307 110.252C82.5212 110.93 83.1464 111.75 83.5446 112.768C83.9203 113.728 84.0359 114.661 84.0697 115.519C84.1023 116.31 84.074 117.239 84.0468 118.236L83.9909 120.041C83.9319 122.058 83.9033 123.234 83.9853 124.092C84.0244 124.482 84.0713 124.685 84.1068 124.775L84.158 124.809C84.2733 124.885 84.5115 125.048 84.8247 125.148C85.6398 125.42 86.7957 125.652 88.7608 126.039L100.895 128.426C102.865 128.813 104.018 129.035 104.875 129.093C105.265 129.121 105.686 129.02 105.686 129.02C105.686 129.02 105.873 128.78 106.052 128.433C106.453 127.67 106.872 126.571 107.582 124.681L108.218 122.991C108.567 122.052 108.893 121.177 109.228 120.459C109.59 119.673 110.051 118.848 110.768 118.099C111.527 117.308 112.416 116.786 113.219 116.383C114 115.994 114.98 115.577 116.08 115.11L116.176 115.066C125.412 111.14 132.224 103.935 134.331 93.2225C134.712 91.288 136.58 90.0335 138.503 90.4118C140.426 90.7901 141.68 92.6588 141.3 94.5933C138.677 107.925 130.049 116.904 118.943 121.629C117.711 122.152 116.947 122.476 116.395 122.755C116.08 122.911 115.935 123.008 115.88 123.045C115.851 123.093 115.781 123.205 115.677 123.441C115.467 123.894 115.228 124.52 114.824 125.593L114.161 127.365C113.543 129.011 112.972 130.54 112.34 131.742C111.638 133.081 110.678 134.403 109.089 135.291C108.259 135.757 107.418 136.013 106.588 136.135L106.19 138.158C105.793 140.177 105.43 142.023 104.934 143.489C104.384 145.105 103.52 146.751 101.797 147.908C100.078 149.066 98.2321 149.25 96.5342 149.148C94.9942 149.053 93.1545 148.692 91.143 148.296L90.7248 148.214C88.7133 147.818 86.8736 147.456 85.4125 146.96C83.8026 146.411 82.1641 145.542 81.012 143.819C79.8598 142.096 79.6787 140.245 79.7822 138.542C79.8786 136.997 80.2417 135.151 80.6388 133.132L80.68 132.922L81.0074 131.258C80.1268 130.804 79.2885 130.184 78.5768 129.289C77.443 127.865 77.0555 126.278 76.9124 124.773C76.7873 123.422 76.8334 121.79 76.8847 120.032L76.9431 118.141C76.9793 117.001 76.9952 116.331 76.9726 115.832C76.9645 115.579 76.9419 115.449 76.9343 115.389C76.8971 115.333 76.7955 115.188 76.5626 114.924C76.1584 114.452 75.5728 113.848 74.6315 112.893C66.184 104.273 62.0402 92.7625 64.6462 79.5145C68.8753 58.0157 89.4276 43.858 110.649 48.0326C113.274 48.5489 115.785 49.3237 118.165 50.3245C119.974 51.0871 120.823 53.1715 120.061 54.9873C119.303 56.8041 117.219 57.6579 115.415 56.8962C113.472 56.0782 111.42 55.447 109.274 55.0248ZM133.877 52.6019C135.336 52.8888 136.458 54.0537 136.694 55.5285L137.253 59.0133C138.038 63.9031 138.333 65.249 139.042 66.3083C139.75 67.3677 140.879 68.1515 145.091 70.7327L148.092 72.5723C149.363 73.35 150.012 74.8335 149.724 76.2972C149.436 77.7609 148.274 78.8879 146.803 79.1264L143.329 79.6921C138.453 80.4858 137.111 80.7835 136.054 81.4955C134.997 82.2075 134.214 83.3415 131.636 87.5696L129.798 90.5829C129.021 91.8584 127.542 92.5115 126.083 92.2246C124.624 91.9376 123.502 90.7728 123.266 89.298L122.707 85.8132C121.922 80.9234 121.627 79.5774 120.919 78.5181C120.21 77.4588 119.081 76.675 114.869 74.0938L111.868 72.2541C110.597 71.4764 109.948 69.993 110.236 68.5293C110.524 67.0656 111.687 65.9386 113.157 65.7001L116.632 65.1344C121.507 64.3407 122.849 64.043 123.906 63.331C124.963 62.6189 125.746 61.485 128.324 57.2569L130.162 54.2436C130.939 52.968 132.419 52.3149 133.877 52.6019ZM87.8778 133.128L87.6485 134.293C87.1964 136.591 86.9361 137.964 86.8737 138.968C86.8451 139.432 86.8708 139.67 86.8924 139.78C86.9054 139.788 86.9222 139.801 86.9389 139.814C87.0627 139.896 87.325 140.083 87.7052 140.211C88.6551 140.534 90.0191 140.812 92.3094 141.262C94.5997 141.713 95.9673 141.972 96.9686 142.034C97.3689 142.059 97.6826 141.985 97.8284 141.956C97.8488 141.95 97.8692 141.945 97.884 141.943C97.946 141.848 98.0597 141.638 98.2091 141.198C98.5317 140.245 98.8106 138.876 99.2627 136.578L99.4919 135.413L87.8778 133.128ZM131.279 65.8079C130.258 67.1999 129.187 68.3498 127.862 69.2464C126.534 70.1375 125.063 70.6955 123.397 71.1183C124.779 72.1406 125.928 73.214 126.821 74.5419C127.707 75.8735 128.262 77.3433 128.681 79.0186C129.703 77.6266 130.773 76.4766 132.098 75.58C133.427 74.689 134.892 74.1301 136.563 73.7082C135.177 72.685 134.032 71.6124 133.14 70.2846C132.253 68.953 131.698 67.4832 131.279 65.8079Z" fill="#FFB804"/>
<path fill-rule="evenodd" clip-rule="evenodd" d="M98.4444 0.0582195C114.149 -1.47202 113.572 27.5712 124.294 39.1123C130.331 45.6105 138.395 50.6368 147.096 52.4275C164.779 56.0668 186.91 43.284 200.748 54.8473C211.463 63.8008 203.023 82.7788 199.585 96.289C196.481 108.492 185.93 117.378 181.811 129.279C177.93 140.494 180.319 153.008 176.117 164.108C171.417 176.522 168.298 193.417 155.8 197.982C142.051 203.004 128.296 187.869 113.685 186.91C102.862 186.2 91.8614 197.719 82.0358 193.141C71.1491 188.069 67.1094 174.312 62.7137 163.162C59.2356 154.34 67.4881 139.811 59.1878 135.187C43.6456 126.528 20.8085 142.104 6.34162 131.758C-3.16029 124.962 6.45549 108.729 5.90823 97.0839C5.29265 83.9848 -4.82574 68.8195 2.88462 58.1952C11.2571 46.6585 29.3867 48.2144 43.3944 45.4305C53.6554 43.3913 66.4173 50.6124 74.4813 43.9661C87.4731 33.2582 81.6675 1.69298 98.4444 0.0582195Z" fill="#414BAE" fill-opacity="0.12"/>
</svg>
